<svg width="64" height="23" viewBox="0 0 64 23" fill="none" xmlns="http://www.w3.org/2000/svg">
<path d="M16.83 22L9.6 12.28L2.4 22H0.6L8.67 11.17L1.17 0.999999H2.97L9.66 10.03L16.35 0.999999H18.06L10.56 11.14L18.63 22H16.83ZM61.2148 22L53.9848 12.28L46.7848 22H44.9848L53.0548 11.17L45.5548 0.999999H47.3548L54.0448 10.03L60.7348 0.999999H62.4448L54.9448 11.14L63.0148 22H61.2148Z" fill="black"/>
<path d="M31.818 22.15C29.758 22.15 27.898 21.69 26.238 20.77C24.578 19.83 23.268 18.55 22.308 16.93C21.368 15.31 20.898 13.5 20.898 11.5C20.898 9.5 21.368 7.69 22.308 6.07C23.268 4.45 24.578 3.18 26.238 2.26C27.898 1.32 29.758 0.849999 31.818 0.849999C33.878 0.849999 35.738 1.31 37.398 2.23C39.058 3.15 40.358 4.42 41.298 6.04C42.258 7.66 42.738 9.48 42.738 11.5C42.738 13.52 42.258 15.34 41.298 16.96C40.358 18.58 39.058 19.85 37.398 20.77C35.738 21.69 33.878 22.15 31.818 22.15ZM31.818 20.74C33.578 20.74 35.168 20.34 36.588 19.54C38.008 18.74 39.128 17.64 39.948 16.24C40.768 14.82 41.178 13.24 41.178 11.5C41.178 9.76 40.768 8.19 39.948 6.79C39.128 5.37 38.008 4.26 36.588 3.46C35.168 2.66 33.578 2.26 31.818 2.26C30.058 2.26 28.458 2.66 27.018 3.46C25.598 4.26 24.478 5.37 23.658 6.79C22.838 8.19 22.428 9.76 22.428 11.5C22.428 13.24 22.838 14.82 23.658 16.24C24.478 17.64 25.598 18.74 27.018 19.54C28.458 20.34 30.058 20.74 31.818 20.74Z" fill="#FBA3A3"/>
</svg>
